# xmcd CD database file generated by OrangeCD 5.2
#
# Track frame offsets:
#	187
#	13747
#	32442
#	47730
#	62910
#	83657
#	102792
#	122160
#	140517
#	159427
#
# Disc length: 2322 seconds
#
# Revision: 0
# Processed by: cddbd v1.5.1PL0 Copyright (c) Steve Scherf et al.
# Submitted via: OrangeCD 5.2
#
DISCID=7a09100a
DTITLE=Jon Randall - What You Don't Know
DYEAR=1994
DGENRE=Country
TTITLE0=This Heart
TTITLE1=Only Game in Town
TTITLE2=Oh Boy, Girl
TTITLE3=If I Hadn't Reached for the Stars
TTITLE4=What You Don't Know
TTITLE5=Standin' Still
TTITLE6=Tennessee Blues
TTITLE7=They're Gonna Miss Me When I'm Gone
TTITLE8=Just Like You
TTITLE9=Freight Train Boogie
EXTD=
EXTT0=
EXTT1=
EXTT2=
EXTT3=
EXTT4=
EXTT5=
EXTT6=
EXTT7=
EXTT8=
EXTT9=
PLAYORDER=
